<?xml version="1.0" encoding="utf-8"?>
<?xml-stylesheet type="text/xsl" href="rss1.xsl"?>
<rss version="2.0" xmlns:atom="http://www.w3.org/2005/Atom" xmlns:content="http://purl.org/rss/1.0/modules/content/" xmlns:dc="http://purl.org/dc/elements/1.1/" xmlns:media="http://search.yahoo.com/mrss/">
<channel>
 <title>Getty</title>
 <link>http://www.gettyimg.com/</link>
 <atom:link href="http://www.gettyimg.com/" rel="self" type="application/rss+xml" />

 
                <item>
                <title><![CDATA[【Cinema Center】MOVIE - Star Wars: Episode I - The Phantom Menace (1999) (DVDRip DivX)]]></title>
                <link><![CDATA[https://sharemania.us/threads/star-wars-episode-i-the-phantom-menace-1999-dvdrip-divx.234142/]]></link>
                <description><![CDATA[<article>
<blockquote class="messageText SelectQuoteContainer ugc baseHtml">
<b>Release Name</b><br>
Star.Wars.Episode.I.The.Phantom.Menace.1999.DVDRip.DivX<br>
<br>
<div class="ToggleTriggerAnchor bbCodeSpoilerContainer">
<button type="button" class="button bbCodeSpoilerButton ToggleTrigger Tooltip JsOnly" data-target="> .SpoilerTarget"><span>Spoiler: <span class="SpoilerTitle">Media Information</span></span></button>
<div class="SpoilerTarget bbCodeSpoilerText">General<br>
Unique ID : 253503729835752266153281809511356276406 (0xBEB70ADCB8DECC1A7FF0C5722FBB9EB6)<br>
Complete name : Star.Wars.Episode.I.The.Phantom.Menace.1999.DVDRip.DivX.mkv<br>
Format : Matroska<br>
Format version : Version 4<br>
File size : 6.56 GiB<br>
Duration : 2 h 16 min<br>
Overall bit rate mode : Variable<br>
Overall bit rate : 6 896 kb/s<br>
Frame rate : 23.976 FPS<br>
Movie name : Star Wars: Episode I – The Phantom Menace<br>
Encoded date : 2001-10-16 16:00:00 UTC<br>
Writing application : MakeMKV v1.17.5 darwin(arm64-release)<br>
Writing library : libmakemkv v1.17.5 (1.3.10/1.5.2) darwin(arm64-release)<br>
<br>
Video<br>
ID : 1<br>
ID in the original source medium : 224 (0xE0)<br>
Format : MPEG Video<br>
Format version : Version 2<br>
Format profile : Main@Main<br>
Format settings : CustomMatrix / BVOP<br>
Format settings, BVOP : Yes<br>
Format settings, Matrix : Custom<br>
Format settings, GOP : Variable<br>
Codec ID : V_MPEG2<br>
Codec ID/Info : MPEG 1 or 2 Video<br>
Duration : 2 h 16 min<br>
Bit rate mode : Variable<br>
Bit rate : 5 861 kb/s<br>
Maximum bit rate : 9 800 kb/s<br>
Width : 720 pixels<br>
Height : 480 pixels<br>
Display aspect ratio : 16:9<br>
Frame rate mode : Variable<br>
Frame rate : 23.976 FPS<br>
Standard : Component<br>
Color space : YUV<br>
Chroma subsampling : 4:2:0<br>
Bit depth : 8 bits<br>
Scan type : Progressive<br>
Scan order : 2:3 Pulldown<br>
Compression mode : Lossy<br>
Bits/(Pixel*Frame) : 0.707<br>
Time code of first frame : 00:59:59;00<br>
Time code source : Group of pictures header<br>
GOP, Open/Closed : Open<br>
GOP, Open/Closed of first frame : Closed<br>
Stream size : 5.58 GiB (85%)<br>
Language : English<br>
Default : No<br>
Forced : No<br>
Color primaries : BT.601 NTSC<br>
Transfer characteristics : BT.601<br>
Matrix coefficients : BT.601<br>
Original source medium : DVD-Video<br>
<br>
Audio #1<br>
ID : 2<br>
ID in the original source medium : 189 (0xBD)128 (0x80)<br>
Format : AC-3<br>
Format/Info : Audio Coding 3<br>
Commercial name : Dolby Digital<br>
Codec ID : A_AC3<br>
Duration : 2 h 16 min<br>
Bit rate mode : Constant<br>
Bit rate : 448 kb/s<br>
Channel(s) : 6 channels<br>
Channel layout : L R C LFE Ls Rs<br>
Sampling rate : 48.0 kHz<br>
Frame rate : 31.250 FPS (1536 SPF)<br>
Compression mode : Lossy<br>
Stream size : 436 MiB (6%)<br>
Title : Surround 5.1<br>
Language : English (US)<br>
Service kind : Complete Main<br>
Default : Yes<br>
Forced : No<br>
Original source medium : DVD-Video<br>
<br>
Audio #2<br>
ID : 3<br>
ID in the original source medium : 189 (0xBD)129 (0x81)<br>
Format : AC-3<br>
Format/Info : Audio Coding 3<br>
Commercial name : Dolby Digital<br>
Format settings : Dolby Surround<br>
Codec ID : A_AC3<br>
Duration : 2 h 16 min<br>
Bit rate mode : Constant<br>
Bit rate : 192 kb/s<br>
Channel(s) : 2 channels<br>
Channel layout : L R<br>
Sampling rate : 48.0 kHz<br>
Frame rate : 31.250 FPS (1536 SPF)<br>
Compression mode : Lossy<br>
Stream size : 187 MiB (3%)<br>
Title : Stereo<br>
Language : English<br>
Service kind : Complete Main<br>
Default : No<br>
Forced : No<br>
Original source medium : DVD-Video<br>
<br>
Audio #3<br>
ID : 4<br>
ID in the original source medium : 189 (0xBD)130 (0x82)<br>
Format : AC-3<br>
Format/Info : Audio Coding 3<br>
Commercial name : Dolby Digital<br>
Format settings : Dolby Surround<br>
Codec ID : A_AC3<br>
Duration : 2 h 16 min<br>
Bit rate mode : Constant<br>
Bit rate : 192 kb/s<br>
Channel(s) : 2 channels<br>
Channel layout : L R<br>
Sampling rate : 48.0 kHz<br>
Frame rate : 31.250 FPS (1536 SPF)<br>
Compression mode : Lossy<br>
Stream size : 187 MiB (3%)<br>
Title : Stereo<br>
Language : Spanish (Latin America)<br>
Service kind : Complete Main<br>
Default : No<br>
Forced : No<br>
Original source medium : DVD-Video<br>
<br>
Audio #4<br>
ID : 5<br>
ID in the original source medium : 189 (0xBD)131 (0x83)<br>
Format : AC-3<br>
Format/Info : Audio Coding 3<br>
Commercial name : Dolby Digital<br>
Format settings : Dolby Surround<br>
Codec ID : A_AC3<br>
Duration : 2 h 16 min<br>
Bit rate mode : Constant<br>
Bit rate : 192 kb/s<br>
Channel(s) : 2 channels<br>
Channel layout : L R<br>
Sampling rate : 48.0 kHz<br>
Frame rate : 31.250 FPS (1536 SPF)<br>
Compression mode : Lossy<br>
Stream size : 187 MiB (3%)<br>
Title : Stereo<br>
Language : English<br>
Service kind : Complete Main<br>
Default : No<br>
Forced : No<br>
Original source medium : DVD-Video<br>
<br>
Text #1<br>
ID : 6<br>
ID in the original source medium : 189 (0xBD)32 (0x20)<br>
Format : VobSub<br>
Codec ID : S_VOBSUB<br>
Codec ID/Info : Picture based subtitle format used on DVDs<br>
Duration : 2 h 16 min<br>
Bit rate : 2 772 b/s<br>
Frame rate : 0.204 FPS<br>
Count of elements : 1667<br>
Stream size : 2.70 MiB (0%)<br>
Language : English<br>
Default : Yes<br>
Forced : No<br>
Original source medium : DVD-Video<br>
<br>
Text #2<br>
ID : 7<br>
ID in the original source medium : 189 (0xBD)34 (0x22)<br>
Format : VobSub<br>
Codec ID : S_VOBSUB<br>
Codec ID/Info : Picture based subtitle format used on DVDs<br>
Duration : 2 h 11 min<br>
Bit rate : 46 b/s<br>
Frame rate : 0.007 FPS<br>
Count of elements : 53<br>
Stream size : 45.2 KiB (0%)<br>
Language : English<br>
Default : No<br>
Forced : No<br>
Original source medium : DVD-Video<br>
<br>
Text #3<br>
ID : 8<br>
ID in the original source medium : 189 (0xBD)36 (0x24)<br>
Format : VobSub<br>
Codec ID : S_VOBSUB<br>
Codec ID/Info : Picture based subtitle format used on DVDs<br>
Duration : 2 h 11 min<br>
Bit rate : 50 b/s<br>
Frame rate : 0.007 FPS<br>
Count of elements : 53<br>
Stream size : 48.4 KiB (0%)<br>
Language : Spanish<br>
Default : No<br>
Forced : No<br>
Original source medium : DVD-Video<br>
<br>
Text #4<br>
ID : 9<br>
ID in the original source medium : 189 (0xBD)38 (0x26)<br>
Format : VobSub<br>
Codec ID : S_VOBSUB<br>
Codec ID/Info : Picture based subtitle format used on DVDs<br>
Duration : 2 h 11 min<br>
Bit rate : 184 b/s<br>
Frame rate : 0.035 FPS<br>
Count of elements : 279<br>
Stream size : 178 KiB (0%)<br>
Language : English<br>
Default : No<br>
Forced : No<br>
Original source medium : DVD-Video<br>
<br>
Text #5<br>
ID : 10<br>
ID in the original source medium : 224 (0xE0)<br>
Format : UTF-8<br>
Codec ID : S_TEXT/UTF8<br>
Codec ID/Info : UTF-8 Plain Text<br>
Duration : 2 h 14 min<br>
Bit rate : 104 b/s<br>
Frame rate : 0.203 FPS<br>
Count of elements : 1630<br>
Stream size : 103 KiB (0%)<br>
Language : English<br>
Default : No<br>
Forced : No<br>
Original source medium : DVD-Video<br>
<br>
Menu<br>
00:00:00.000 : en:Chapter 01<br>
00:00:21.021 : en:Chapter 02<br>
00:01:52.812 : en:Chapter 03<br>
00:07:55.308 : en:Chapter 04<br>
00:09:55.928 : en:Chapter 05<br>
00:11:18.711 : en:Chapter 06<br>
00:13:24.136 : en:Chapter 07<br>
00:14:49.755 : en:Chapter 08<br>
00:17:14.199 : en:Chapter 09<br>
00:20:40.906 : en:Chapter 10<br>
00:22:25.344 : en:Chapter 11<br>
00:25:12.844 : en:Chapter 12<br>
00:29:32.771 : en:Chapter 13<br>
00:31:41.432 : en:Chapter 14<br>
00:35:51.682 : en:Chapter 15<br>
00:40:48.612 : en:Chapter 16<br>
00:44:16.320 : en:Chapter 17<br>
00:52:04.621 : en:Chapter 18<br>
00:55:03.800 : en:Chapter 19<br>
00:58:27.804 : en:Chapter 20<br>
01:02:27.677 : en:Chapter 21<br>
01:05:33.195 : en:Chapter 22<br>
01:10:06.802 : en:Chapter 23<br>
01:11:17.740 : en:Chapter 24<br>
01:16:20.842 : en:Chapter 25<br>
01:18:07.949 : en:Chapter 26<br>
01:20:26.254 : en:Chapter 27<br>
01:24:18.019 : en:Chapter 28<br>
01:26:44.799 : en:Chapter 29<br>
01:29:54.655 : en:Chapter 30<br>
01:31:02.390 : en:Chapter 31<br>
01:33:08.516 : en:Chapter 32<br>
01:37:21.268 : en:Chapter 33<br>
01:39:06.206 : en:Chapter 34<br>
01:42:33.747 : en:Chapter 35<br>
01:44:41.341 : en:Chapter 36<br>
01:46:19.406 : en:Chapter 37<br>
01:48:07.848 : en:Chapter 38<br>
01:50:24.818 : en:Chapter 39<br>
01:56:47.533 : en:Chapter 40<br>
01:59:12.879 : en:Chapter 41<br>
02:00:30.756 : en:Chapter 42<br>
02:01:21.140 : en:Chapter 43<br>
02:02:23.202 : en:Chapter 44<br>
02:03:56.796 : en:Chapter 45<br>
02:05:14.907 : en:Chapter 46<br>
02:06:25.811 : en:Chapter 47<br>
02:07:23.035 : en:Chapter 48<br>
02:08:28.901 : en:Chapter 49<br>
02:09:53.819 : en:Chapter 50</div>
</div>
<div class="messageTextEndMarker">&nbsp;</div>
</blockquote>
</article>]]></description>
                <author><![CDATA[Austin Zimmermann]]></author>
                </item>

                
                <item>
                <title><![CDATA[【Requests】[REQ CAP] - Pierre Henry - Galaxie [FLAC]]]></title>
                <link><![CDATA[https://sharemania.us/threads/pierre-henry-galaxie-flac.234143/]]></link>
                <description><![CDATA[<article>
<blockquote class="messageText SelectQuoteContainer ugc baseHtml">
Hello, need this album. pleasee
<div class="messageTextEndMarker">&nbsp;</div>
</blockquote>
</article>]]></description>
                <author><![CDATA[neon1881]]></author>
                </item>

                </channel></rss>